<svg xmlns="http://www.w3.org/2000/svg" viewBox="0 0 200 200" width="200" height="200">
  <!-- Background circle -->
  <circle cx="100" cy="100" r="95" fill="#1a1a2e" stroke="#e94560" stroke-width="3"/>
  
  <!-- Body - muscular torso -->
  <path d="M75 95 Q70 80 65 70 Q60 65 68 60 L78 58 Q85 55 90 58 L95 62 L105 62 L110 58 Q115 55 122 58 L132 60 Q140 65 135 70 Q130 80 125 95 L130 100 Q135 110 130 120 L125 130 L75 130 L70 120 Q65 110 70 100 Z" fill="#1a1a1a"/>
  
  <!-- Head -->
  <circle cx="100" cy="48" r="18" fill="#1a1a1a"/>
  
  <!-- Shoulders - broad and muscular -->
  <ellipse cx="68" cy="72" rx="15" ry="10" fill="#1a1a1a"/>
  <ellipse cx="132" cy="72" rx="15" ry="10" fill="#1a1a1a"/>
  
  <!-- Left arm (holding paint bucket) - muscular -->
  <path d="M55 72 Q45 80 42 95 Q40 105 45 110 L50 115" fill="none" stroke="#1a1a1a" stroke-width="12" stroke-linecap="round"/>
  
  <!-- Right arm (holding paint roller up) - muscular -->
  <path d="M145 72 Q155 65 158 50 Q160 40 155 30" fill="none" stroke="#1a1a1a" stroke-width="12" stroke-linecap="round"/>
  
  <!-- Bicep detail left -->
  <path d="M52 82 Q48 88 46 95" fill="none" stroke="#2a2a2a" stroke-width="2" stroke-linecap="round"/>
  
  <!-- Bicep detail right -->
  <path d="M148 62 Q152 55 156 48" fill="none" stroke="#2a2a2a" stroke-width="2" stroke-linecap="round"/>
  
  <!-- Paint roller -->
  <rect x="148" y="15" width="20" height="12" rx="4" fill="#e94560"/>
  <line x1="155" y1="27" x2="155" y2="32" stroke="#666" stroke-width="2"/>
  
  <!-- Paint bucket -->
  <rect x="35" y="112" width="20" height="18" rx="2" fill="#e94560"/>
  <rect x="33" y="110" width="24" height="5" rx="2" fill="#c73e54"/>
  <path d="M40 112 Q45 108 50 112" fill="none" stroke="#888" stroke-width="1.5"/>
  
  <!-- Paint drip from roller -->
  <path d="M160 27 Q162 35 160 42" fill="none" stroke="#e94560" stroke-width="2" stroke-linecap="round"/>
  <circle cx="160" cy="44" r="2" fill="#e94560"/>
  
  <!-- Legs -->
  <rect x="80" y="128" width="14" height="30" rx="4" fill="#1a1a1a"/>
  <rect x="106" y="128" width="14" height="30" rx="4" fill="#1a1a1a"/>
  
  <!-- Shoes -->
  <ellipse cx="87" cy="160" rx="10" ry="5" fill="#111"/>
  <ellipse cx="113" cy="160" rx="10" ry="5" fill="#111"/>
  
  <!-- Paint splatter decoration -->
  <circle cx="30" cy="170" r="4" fill="#e94560" opacity="0.6"/>
  <circle cx="170" cy="175" r="3" fill="#e94560" opacity="0.5"/>
  <circle cx="25" cy="35" r="3" fill="#e94560" opacity="0.4"/>
  <circle cx="175" cy="30" r="5" fill="#e94560" opacity="0.3"/>
  
  <!-- Chest/muscle definition -->
  <path d="M88 75 Q100 80 112 75" fill="none" stroke="#2a2a2a" stroke-width="1.5"/>
  <line x1="100" y1="72" x2="100" y2="90" stroke="#2a2a2a" stroke-width="1"/>
</svg>
